# xmcd CD database file
#
# Track frame offsets:
#	150
#	17946
#	37216
#	60546
#	79796
#	102426
#	124631
#	147570
#	169307
#	190391
#	211832
#	228651
#	246649
#	265690
#	284239
#	297840
#	309980
#	322730
#
# Disc length: 4497 seconds
#
# Revision: 0
# Processed by: cddbd v1.5.2PL0 Copyright (c) Steve Scherf et al.
# Submitted via: CDex 1.70beta2
#
DISCID=19118f12
DTITLE=Red Norvo - Bebop Story The Early Years Vol 10 CD 010
DYEAR=2008
DGENRE=Jazz
TTITLE0=1 - 2 - 3 -4 Jump
TTITLE1=Seven Come Eleven
TTITLE2=In A Mellotone
TTITLE3=Flyin' Home
TTITLE4=The Seargeant On Furlough
TTITLE5=NRC Jump
TTITLE6=Lagwood Walk
TTITLE7=Red Dust
TTITLE8=Blue Skies
TTITLE9=Purple Feathers
TTITLE10=Subtle Sextology
TTITLE11=Blues A La Red
TTITLE12=The Man I Love
TTITLE13=Seven Come Eleven
TTITLE14=Swedish Pastry
TTITLE15=Sweet And Hot Mop
TTITLE16=Who Sleeps
TTITLE17=I'll Never Be The Same
EXTD=YEAR: 2008
EXTT0=
EXTT1=
EXTT2=
EXTT3=
EXTT4=
EXTT5=
EXTT6=
EXTT7=
EXTT8=
EXTT9=
EXTT10=
EXTT11=
EXTT12=
EXTT13=
EXTT14=
EXTT15=
EXTT16=
EXTT17=
PLAYORDER=
